<svg xmlns="http://www.w3.org/2000/svg" width="256" height="256" viewBox="0 0 100 100"><rect width="100" height="100" rx="20" fill="#314348"></rect><path fill="#fff" d="M50.04 83.62L50.04 83.62Q44.26 83.62 39.72 80.98Q35.17 78.35 32.53 73.80Q29.90 69.25 29.90 63.56L29.90 63.56Q29.90 61.94 30.96 60.92Q32.02 59.90 33.55 59.90L33.55 59.90Q35.17 59.90 36.23 60.92Q37.29 61.94 37.29 63.56L37.29 63.56Q37.29 67.30 38.95 70.32Q40.61 73.33 43.50 75.03Q46.39 76.73 50.04 76.73L50.04 76.73Q53.61 76.73 56.50 74.99Q59.39 73.25 61.05 70.27Q62.71 67.30 62.71 63.56L62.71 63.56L62.71 20.04Q62.71 18.42 63.77 17.40Q64.83 16.38 66.36 16.38L66.36 16.38Q67.98 16.38 69.04 17.40Q70.10 18.42 70.10 20.04L70.10 20.04L70.10 63.56Q70.10 69.25 67.47 73.80Q64.83 78.35 60.29 80.98Q55.74 83.62 50.04 83.62Z"></path></svg>